<svg xmlns="http://www.w3.org/2000/svg" width="400" height="400" viewBox="0 0 400 400"><path d="M311 68h26l6-7 1-10 4-7 11-6h12l4-5-1-4-5-4h-57ZM30 26l29 43h90l10-27 15-16Zm176 128-1-16h-26l-5 5 1 4 6 4 20 4Zm95 99 7-7 4-9v-45l-4-15-8-14-13-13-23-11-45-1-1 27 4 4 22 1 8 4 8 10 2 7v46l4 9 7 7 10 4h8Z"/><path d="m310 279 9-5 10-10 8-19-1-147-8-11-10-5H212l-6-4v-5l6-4h84l4-5V31l-6-6h-86l-16 4-10 6-11 11-8 17-1 20 9 22 11 11 16 8 11 2h51l25 8 22 18 13 22 4 16-1 53-11 17-9 6-10 3h-12l-10-3-9-6-8-10-4-11v-46l-7-10h-6v62l8 19 13 12 12 5 28 1Zm-67 60 2 1 19-7 27-1 12 2 14 6 1-16-6-14-9-9-9-5-18-2-16 6-11 11-5 11Zm4 16 15 16 10 4 12 1 20-8 7-7 4-8-19-8-23-1-18 4-6 3Z"/><path d="m311 378-19 9h-22l-21-10-13-16-5-16 2-29 8-15 14-13-17-13-8-12-4-11-1-69-12-5-7-10-33-7-8-7-3-7 1-9 12-12-16-17-6-12-3-14-97-2-40-58-1-5 3-4 356-1 12 7 4 9-3 13-8 7-17 2-3 3-4 16-13 11 5 6 5 13v147l-5 16-8 12-10 9-15 8 13 14 6 15 1 10-1 17-3 10-6 10Z"/></svg>