<svg xmlns="http://www.w3.org/2000/svg" width="400" height="400" viewBox="0 0 400 400"><path d="m104 69 9 1 2-18 15-6-7-3-18 2Z"/><path d="m64 28 22 46 7-3V38l6-4 28-2 14 8 3 10-6 7-13 5v9l28 10h161l22-54-271-1Zm43 283h7l10-7 12-36 2-15-6-2-12 29-3 3-7-1-2-5 13-33 8-5 23 4 5-10-2-3-41-6-3 3-11 32-4 4-7-3 1-10 10-27 5-7 8-4 30 3 4-52 1-72-28-9-27 1-19 9 2 97 5 81 9 27 10 11Zm2 27 39 1 1-6-5-14-5-5-6-1-7 3-10 9Zm-2 26 7 9 9 2 20-2 6-6 2-15-2-2h-41Z"/><path d="m105 382-8-10-3-16 3-22 6-12-12-6-10-11-6-12-6-24-5-88-1-95 11-9-23-49-2-10 3-3h295l3 3v5l-25 65-4 5-161 1-1 69-4 55 8 3 3 4 2 14-4 9-7 8h-8l-5 26-7 19 9 4 7 7 4 8 4 15 1 27-6 16-9 6-23 3Z"/></svg>