<svg xmlns="http://www.w3.org/2000/svg" width="400" height="400" viewBox="0 0 400 400"><path d="m93 116 12 1 3-26 6-3 13-1 2-4-9-5-28 2-1 34Z"/><path d="m29 58 30 65 20-7V75l4-5 37-4 18 10 3 5v8l-8 7-15 4-1 18 29 11h196l29-72-341-1Zm122 140 9-8v-7l-6-6-3 1Zm5 65 1-3-8-19-2 21Zm101 66 25-49-2-2-16-4h-12l-7 3-5 7-1 9 4 16 7 13Z"/><path d="m232 332 7-7-9-18-2-21-6-3 4 7-2 7-6 1-3-2-53-92-11 10 32 81-1 7-4 2-5-2-11-27-23-1-4-3 5-131-17-8-25-5-19 1-18 8-4 4 5 138 5 23 13 23 15 12 19 6 93-1 17-4Zm57 13 7-1 10-10 6-10 5-17-1-8-8-8-13-7-3 1-24 50 8 6Z"/><path d="m304 353-6 3-18-1-18-8-16-12-11 9-22 8-44 2-60-1-22-8-18-16-13-24-6-29-5-140 4-6-35-77v-5l3-3h365l3 3-1 8-30 78-5 7-197 1-1 21 11 5 7 7 3 8-1 12 42 72 19 7 8-8 9-3 25 1 34 13 17 14 4 10-4 22-11 20Z"/></svg>