<svg xmlns="http://www.w3.org/2000/svg" width="400" height="400" viewBox="0 0 400 400"><path d="m266 253-21 5-12-2-16-7-14-12-30-36-3-6 2-10 29-37 38-1-14 27-1 7 2 2 17 2 10 19 14 13 14 7v8l-4 10Zm-80-15 16 17 12 8 18 7 13 1-55 28-5-33Z"/><path d="M33 175v-42l3-6 8-6-12-6-2-12 4-6 6-3h312l9 6 2 6-2 8-7 6-28 1 16 8 12 13 6 14 1 17-9 22-12 11-18 7-2-93-12 1v92l-19-1-18-9-11-13-6-18 1-16 8-16 11-10 12-6 10-2v-2h-39l-4 11-9 6h-37l10-17-37 1 5 8v17l-25 32-4 12 4 16 15 18-4 20v19l7 43-17 6-21 2-21-5-14-9-10-12-5-11-3-16 3-23 11-25 22-27v-5l-3-4-44 3v-51l69-8-89-1 7 8v54l-20 3-6-3Z"/></svg>